<mxfile host="app.diagrams.net" modified="2023-05-10T09:23:13.909Z" agent="Mozilla/5.0 (Windows NT 10.0; Win64; x64) AppleWebKit/537.36 (KHTML, like Gecko) Chrome/113.0.0.0 Safari/537.36" version="21.2.9" etag="eFsOlAslUmQbGcZ3XTW6" type="github">
  <diagram name="第 1 页" id="IttirZ8Hwox6367n6ZVb">
    <mxGraphModel>
      <root>
        <mxCell id="0" />
        <mxCell id="1" parent="0" />
      </root>
    </mxGraphModel>
  </diagram>
</mxfile>
